PathFileType  4	(X/Y/Z) C:\Users\antoi\Documents\MyRepositories\mobilecap\ResultsAnalysis
DataRate	CameraRate	NumFrames	NumMarkers	Units	OrigDataRate	OrigDataStartFrame	OrigNumFrames
100.0	100.0	4	51	mm	100.0	47	184
Frame#	Time	r_knee			r_shank_antsup			r_ankle			r_calc			r_5meta			r_toe			L_knee			L_shank_antsup			L_ankle			L_calc			L_5meta			L_toe			r_sh2			r_sh3			r_sh4			L_sh2			L_sh3			r_thigh1			r_thigh2			r_thigh3			r_thigh4			r_thigh5			L_thigh1			L_thigh2			L_thigh3			L_thigh4			r.ASIS			r.PSIS			L.ASIS			L.PSIS			C7			R_Shoulder			L_Shoulder			R_Sternum			L_Sternum			R_humerus			R_elbow_med			R_elbow_lat			R_forearm			R_wrist_radius			R_wrist_ulna			L_humerus			L_elbow_med			L_elbow_lat			L_forearm			L_wrist_radius			L_wrist_ulna			R_HJC			L_HJC			R_HJC_reg			L_HJC_reg			
		X1	Y1	Z1	X2	Y2	Z2	X3	Y3	Z3	X4	Y4	Z4	X5	Y5	Z5	X6	Y6	Z6	X7	Y7	Z7	X8	Y8	Z8	X9	Y9	Z9	X10	Y10	Z10	X11	Y11	Z11	X12	Y12	Z12	X13	Y13	Z13	X14	Y14	Z14	X15	Y15	Z15	X16	Y16	Z16	X17	Y17	Z17	X18	Y18	Z18	X19	Y19	Z19	X20	Y20	Z20	X21	Y21	Z21	X22	Y22	Z22	X23	Y23	Z23	X24	Y24	Z24	X25	Y25	Z25	X26	Y26	Z26	X27	Y27	Z27	X28	Y28	Z28	X29	Y29	Z29	X30	Y30	Z30	X31	Y31	Z31	X32	Y32	Z32	X33	Y33	Z33	X34	Y34	Z34	X35	Y35	Z35	X36	Y36	Z36	X37	Y37	Z37	X38	Y38	Z38	X39	Y39	Z39	X40	Y40	Z40	X41	Y41	Z41	X42	Y42	Z42	X43	Y43	Z43	X44	Y44	Z44	X45	Y45	Z45	X46	Y46	Z46	X47	Y47	Z47	X48	Y48	Z48	X49	Y49	Z49	X50	Y50	Z50	X51	Y51	Z51	

47	0.46000000	200.98735	597.76209	-110.36306	209.78534	444.71795	-128.41171	90.62739	100.32416	-153.33850	35.14213	77.09187	-218.13973	223.91943	43.29045	-118.71089	267.47607	66.23133	-167.69102	394.89492	647.70998	-413.12865	435.35613	448.33885	-403.11713	332.97195	149.02571	-391.62418	281.23695	120.06471	-323.35862	472.98167	61.91391	-430.30807	516.08254	102.67404	-380.97301	192.77620	333.78919	-143.81014	147.14335	445.53032	-83.63559	127.14491	334.60790	-90.78457	358.14124	462.55752	-445.23531	340.48120	347.69073	-428.01365	258.35988	885.44547	-63.68659	268.81159	774.42179	-74.23578	207.26793	746.95474	-63.84882	143.81606	879.50345	-76.75395	154.52628	760.70971	-81.49805	247.79862	904.18524	-429.25526	303.11641	777.36137	-434.69853	350.31104	941.88101	-413.17825	401.14884	817.49121	-413.63795	307.35002	1173.09040	-103.42023	111.48499	1203.12187	-175.75740	274.05382	1176.69301	-379.20368	100.54181	1204.92841	-268.08916	165.58063	1693.30425	-208.59974	243.03863	1625.67318	-41.35309	226.73881	1668.40773	-392.48129	303.42677	1598.29628	-192.19174	304.09475	1604.10151	-247.38084	207.57399	1355.78738	21.52195	103.43412	1253.79908	-10.38561	120.07683	1272.84458	58.64763	223.80222	1080.71804	74.62268	263.05558	994.28321	71.74577	230.92443	986.25099	90.00758	224.67305	1373.09673	-465.17393	127.70664	1303.37456	-432.00349	157.21125	1298.55332	-500.81219	243.19260	1110.39428	-520.99237	272.40161	1035.56186	-513.32115	248.15702	1035.79058	-537.62459	226.42514	1077.38421	-137.65077	199.27951	1083.36520	-333.16116	234.11838	1088.04813	-136.61595	212.54207	1091.61004	-318.66197	
48	0.47000000	204.48112	597.29818	-109.93812	212.22437	444.15043	-128.13846	90.80845	100.52010	-153.37843	35.20130	77.33620	-218.18588	223.95736	43.29029	-118.61626	267.52657	66.08606	-167.67174	406.69972	647.45134	-411.73338	453.06318	449.39260	-400.85935	360.98113	146.73704	-390.08745	309.57250	116.64728	-322.30700	504.03012	63.64546	-426.87959	545.31974	105.96672	-377.31539	194.45058	333.31304	-143.69211	149.60039	445.37295	-83.31685	128.85231	334.59233	-90.56779	375.88196	460.96233	-443.85535	362.17158	345.56608	-426.57574	264.98040	884.40935	-63.12573	274.35427	773.25716	-73.75294	212.78895	746.48157	-63.39943	150.36809	879.62525	-76.23133	159.91218	760.63645	-80.99183	258.02799	903.70804	-428.38579	313.70933	777.04072	-433.42591	360.35319	941.68758	-411.91825	411.37597	817.31654	-412.12620	316.20838	1172.32395	-102.63257	120.54377	1202.39883	-175.25467	283.27819	1175.83462	-378.51631	109.68033	1204.13097	-267.58569	174.63859	1692.57363	-209.92148	252.19288	1625.71593	-42.33143	235.87456	1666.77250	-393.70016	312.56599	1597.70417	-193.05824	313.17291	1603.24118	-248.28213	216.61787	1356.07909	21.65849	112.49888	1254.01129	-9.74382	129.19990	1273.35233	59.12872	232.53064	1081.04738	75.76427	271.85722	994.40278	73.04926	239.64940	986.65655	91.52564	234.85807	1371.10899	-465.23302	138.32882	1300.99555	-431.63854	167.41731	1296.21213	-500.61502	254.38064	1108.46971	-520.83725	284.69879	1034.13685	-512.93823	259.81896	1033.79340	-537.26827	235.34574	1076.62785	-136.95009	208.44323	1082.53725	-332.49637	243.03318	1087.34492	-135.83387	221.60750	1090.76124	-317.93654	
49	0.48000000	207.99946	596.81770	-109.53900	214.68189	443.58798	-127.87704	90.97799	100.73045	-153.44633	35.29915	77.57720	-218.24957	224.00149	43.27666	-118.54592	267.57682	65.94077	-167.65460	418.07711	646.93787	-410.23754	470.27709	450.39378	-398.52393	388.42596	144.82691	-388.50419	337.31288	113.60845	-321.25012	534.34242	65.75059	-423.34885	573.78373	109.54625	-373.53149	196.14565	332.83971	-143.57608	152.08464	445.20979	-83.03127	130.54719	334.58827	-90.39622	393.24290	459.40447	-442.40433	383.35719	343.57455	-425.06272	271.60309	883.32077	-62.55961	279.89485	772.04379	-73.28726	218.14131	745.88173	-62.98411	156.95448	879.68044	-75.75310	165.31358	760.50913	-80.52156	268.09613	903.08165	-427.41924	323.94024	776.51004	-432.08749	370.03010	941.07112	-410.81951	421.27236	816.75364	-410.70185	325.16169	1171.49908	-101.85744	129.65466	1201.59685	-174.75699	292.62096	1174.90488	-377.78704	118.88747	1203.26033	-267.08864	183.76688	1691.76823	-211.34969	261.42352	1625.71597	-43.40749	245.07927	1665.00183	-395.02268	321.79765	1597.03141	-194.01149	322.33571	1602.28982	-249.27053	225.66786	1356.35898	21.75504	121.49613	1254.27379	-9.11036	138.29755	1273.90249	59.59675	241.12000	1081.35215	76.90467	280.38365	994.53449	74.37433	248.20170	987.06714	93.09105	245.08729	1368.98171	-465.32656	149.00034	1298.50323	-431.32179	177.70764	1293.71667	-500.44577	265.55901	1106.36090	-520.62206	296.73062	1032.40260	-512.49634	271.45952	1031.59231	-536.84722	244.35125	1075.80628	-136.23916	217.71108	1081.63612	-331.82385	252.04119	1086.57687	-135.07184	230.80296	1089.85812	-317.19767	
50	0.49000000	211.57187	596.31906	-109.17619	217.19140	443.03269	-127.64541	91.14358	100.96171	-153.54635	35.44099	77.83049	-218.33029	224.04702	43.25092	-118.50947	267.62753	65.79727	-167.64259	429.04207	646.17081	-408.64337	486.98150	451.34931	-396.13739	415.29111	143.26283	-386.88674	364.45617	110.85869	-320.17357	563.91122	68.19339	-419.76556	601.49455	113.39007	-369.68772	197.89623	332.38065	-143.47032	154.62931	445.03965	-82.78233	132.27933	334.59089	-90.26440	410.16946	457.88714	-440.87220	403.97884	341.70183	-423.47961	278.25382	882.18800	-62.00614	285.47557	770.78570	-72.86339	223.43453	745.19914	-62.62605	163.56933	879.67491	-75.28958	170.75798	760.34723	-80.07922	277.99860	902.28989	-426.37710	333.83100	775.74765	-430.68801	379.43716	940.08599	-409.85067	430.88672	815.83815	-409.32690	334.19930	1170.62458	-101.08900	138.81576	1200.71907	-174.26232	302.09196	1173.91733	-377.01323	128.16526	1202.32348	-266.59615	192.96961	1690.88507	-212.88241	270.73067	1625.67312	-44.58056	254.35736	1663.09277	-396.44403	331.11185	1596.26977	-195.05041	331.58806	1601.24404	-250.34302	234.73639	1356.63235	21.80987	130.42971	1254.58425	-8.48376	147.38391	1274.48052	60.08974	249.57397	1081.63563	78.04858	288.62825	994.68404	75.72475	256.58093	987.49678	94.74062	255.37385	1366.72433	-465.45716	159.71715	1295.90277	-431.05282	188.08049	1291.07773	-500.30428	276.72886	1104.07021	-520.33991	308.48881	1030.35285	-511.99397	283.07686	1029.19694	-536.35147	253.44030	1074.92587	-135.51668	227.09070	1080.67268	-331.14328	261.14161	1085.74747	-134.33198	240.13514	1088.91189	-316.44870	
